<!-- Generated by IcoMoon.io -->
<svg version="1.1" xmlns="http://www.w3.org/2000/svg" width="768" height="768" viewBox="0 0 768 768">
<title></title>
<g id="icomoon-ignore">
</g>
<path d="M384 287.968c-52.992 0-96 43.008-96 96s43.008 96 96 96 96-43.008 96-96-43.008-96-96-96zM679.392 299.68c-10.4-3.36-19.776-8.704-27.808-15.776-12.928 23.808-28.864 48.224-46.048 72.704-26.72-34.336-57.216-68.992-91.232-103.008-33.76-33.76-68.544-64.384-103.232-91.328 82.464-58.112 161.728-93.088 218.144-93.088 22.912 0 40.448 5.92 52.096 17.568 12.672 12.672 18.272 32.576 17.28 57.792 1.824-0.128 3.52-0.576 5.376-0.576 9.216 0 17.984 1.888 26.208 4.736 1.984-35.872-6.528-64.864-26.24-84.608-17.888-17.888-43.008-26.944-74.72-26.944-65.376 0-153.984 39.008-245.184 104.864-91.2-65.856-179.808-104.896-245.184-104.896-6.784 0-13.152 0.64-19.328 1.472 8.736 8.448 15.328 18.88 19.52 30.56 56.416 0.064 135.616 35.040 218.016 93.12-34.752 27.008-69.568 57.632-103.296 91.392-33.6 33.632-64.224 68.48-91.392 103.488-27.36-38.752-49.92-77.184-66.080-113.696-11.072-24.928-18.464-47.808-22.784-68.48-3.168 0.416-6.24 0.992-9.504 0.992-8.256 0-16.064-1.632-23.552-3.936 4.288 25.472 12.96 53.696 26.592 84.416 18.144 40.992 43.68 84.224 75.040 127.616-31.328 43.328-56.8 86.56-74.976 127.52-38.688 87.264-39.712 155.552-2.912 192.352 17.888 17.888 43.008 26.944 74.72 26.944 96.64 0 244.032-84.992 375.52-216.544 33.696-33.728 64.352-68.672 91.488-103.776 88.64 125.248 114.048 232 75.36 270.688-11.648 11.648-29.184 17.568-52.096 17.568-30.176 0-67.040-10.176-107.328-28.384-4.256 10.24-10.56 19.328-18.4 26.944 46.656 21.6 89.728 33.44 125.728 33.44 31.712 0 56.832-9.056 74.72-26.944 55.616-55.616 20.512-183.392-78.368-320.352 20.32-28.192 38.88-56.352 53.856-83.84zM138.912 698.88c-22.912 0-40.448-5.92-52.096-17.568-26.4-26.4-22.944-83.52 9.536-156.736 16.16-36.48 38.688-74.848 65.984-113.6 27.168 34.976 57.76 69.824 91.328 103.36 33.952 33.952 68.928 64.032 103.872 91.072-82.656 58.368-162.144 93.472-218.624 93.472zM491.808 491.712c-35.008 35.008-71.424 66.624-107.648 94.144-36.32-27.584-72.768-59.104-107.872-94.144-35.008-35.008-66.528-71.328-94.176-107.648 27.648-36.384 59.264-72.736 94.272-107.776 34.976-35.008 71.424-66.624 107.68-94.208 36.224 27.552 72.64 59.168 107.616 94.144 36.352 36.352 67.648 72.48 94.464 107.52-27.648 36.48-59.232 72.864-94.336 107.968zM704 191.968c-17.696 0-32 14.304-32 32s14.304 32 32 32 32-14.304 32-32-14.304-32-32-32zM448 607.968c-17.696 0-32 14.304-32 32s14.304 32 32 32 32-14.304 32-32-14.304-32-32-32zM64 127.968c17.696 0 32-14.304 32-32s-14.304-32-32-32-32 14.304-32 32 14.304 32 32 32z"></path>
</svg>
